<svg width="25" height="25" viewBox="0 0 25 25" fill="none" xmlns="http://www.w3.org/2000/svg">
    <path
        d="M11.5303 9.33047C11.8232 9.03758 11.8232 8.5627 11.5303 8.26981C11.2374 7.97692 10.7626 7.97692 10.4697 8.26981L6.46967 12.2698C6.32322 12.4163 6.25 12.6082 6.25 12.8001C6.25 12.9018 6.27024 12.9988 6.30691 13.0872C6.34351 13.1757 6.39776 13.2586 6.46967 13.3305L10.4697 17.3305C10.7626 17.6234 11.2374 17.6234 11.5303 17.3305C11.8232 17.0376 11.8232 16.5627 11.5303 16.2698L8.81066 13.5501H18.5C18.9142 13.5501 19.25 13.2144 19.25 12.8001C19.25 12.3859 18.9142 12.0501 18.5 12.0501H8.81066L11.5303 9.33047Z"
        fill="white" />
</svg>
