<svg width="74" height="49" viewBox="0 0 74 49" fill="none" xmlns="http://www.w3.org/2000/svg">
<path d="M40.2479 19.5031C40.3502 19.3669 40.4236 19.2113 40.4635 19.0458C40.5035 18.8802 40.5092 18.7082 40.4804 18.5404C40.4515 18.3726 40.3886 18.2124 40.2956 18.0697C40.2026 17.927 40.0814 17.8049 39.9395 17.7107C39.7976 17.6166 39.6379 17.5524 39.4703 17.5222C39.3027 17.492 39.1307 17.4963 38.9648 17.535C38.799 17.5736 38.6427 17.6457 38.5058 17.7469C38.3688 17.8481 38.2539 17.9762 38.1682 18.1234L38.1645 18.1299L38.1609 18.1364C38.145 18.1657 38.1233 18.1916 38.0973 18.2124C38.0712 18.2333 38.0412 18.2487 38.009 18.2577C37.9769 18.2668 37.9433 18.2693 37.9102 18.2652C37.877 18.261 37.8451 18.2503 37.8162 18.2336C37.7873 18.2169 37.762 18.1946 37.7418 18.1679C37.7217 18.1413 37.7071 18.1109 37.6989 18.0786C37.6907 18.0462 37.689 18.0125 37.6941 17.9795C37.6991 17.9465 37.7106 17.9149 37.7281 17.8864L37.7282 17.8865L37.7348 17.8752C37.9275 17.5417 38.2248 17.2811 38.5806 17.1338C38.9365 16.9865 39.331 16.9607 39.703 17.0604C40.075 17.1601 40.4037 17.3797 40.6382 17.6852C40.8727 17.9907 40.9999 18.365 41 18.7502L41 18.7516C41.0012 19.131 40.8776 19.5002 40.6481 19.8022L40.6462 19.8047L38.85 22.2L38.2501 23H39.25H40.75C40.8163 23 40.8799 23.0263 40.9268 23.0732C40.9737 23.1201 41 23.1837 41 23.25C41 23.3163 40.9737 23.3799 40.9268 23.4268C40.8799 23.4737 40.8163 23.5 40.75 23.5H37.75C37.7036 23.5 37.6581 23.4871 37.6186 23.4627C37.5791 23.4383 37.5472 23.4033 37.5264 23.3618C37.5056 23.3203 37.4968 23.2738 37.501 23.2275C37.5052 23.1813 37.5221 23.1371 37.55 23.1L40.2479 19.5031ZM40.2479 19.5031L39.8481 19.2028M40.2479 19.5031L40.2481 19.5028L39.8481 19.2028M39.8481 19.2028C39.9095 19.1211 39.9535 19.0277 39.9775 18.9284C40.0015 18.8291 40.0049 18.7259 39.9876 18.6252C39.9703 18.5245 39.9325 18.4284 39.8767 18.3428C39.8209 18.2572 39.7482 18.1839 39.6631 18.1274C39.5779 18.0709 39.4821 18.0324 39.3816 18.0143C39.281 17.9961 39.1778 17.9987 39.0783 18.0219C38.9788 18.0451 38.885 18.0884 38.8028 18.1491C38.7206 18.2098 38.6517 18.2867 38.6003 18.375C38.5525 18.463 38.4876 18.5406 38.4093 18.6031C38.3311 18.6656 38.2411 18.7118 38.1447 18.739C38.0483 18.7661 37.9474 18.7737 37.8481 18.7613C37.7487 18.7489 37.6528 18.7166 37.5661 18.6665C37.4794 18.6165 37.4035 18.5495 37.3431 18.4696C37.2827 18.3898 37.2389 18.2986 37.2142 18.2015C37.1896 18.1044 37.1847 18.0034 37.1997 17.9044C37.2148 17.8054 37.2495 17.7104 37.3019 17.625C37.5496 17.1963 37.9319 16.8612 38.3894 16.6718C38.8469 16.4824 39.3541 16.4493 39.8324 16.5774C40.3107 16.7056 40.7333 16.988 41.0348 17.3808C41.3363 17.7736 41.4998 18.2548 41.5 18.75C41.5016 19.2391 41.3421 19.7152 41.0463 20.1047L39.625 22H39.25V22.5L39.65 22.8L39.875 22.5H40.75C40.9489 22.5 41.1397 22.579 41.2803 22.7197C41.421 22.8603 41.5 23.0511 41.5 23.25C41.5 23.4489 41.421 23.6397 41.2803 23.7803C41.1397 23.921 40.9489 24 40.75 24H37.75C37.6107 24 37.4742 23.9612 37.3557 23.888C37.2372 23.8148 37.1415 23.71 37.0792 23.5854C37.0169 23.4608 36.9905 23.3214 37.003 23.1826C37.0155 23.0439 37.0664 22.9114 37.15 22.8L39.8481 19.2028ZM41.75 9V9.5H42.25H44.5C44.7652 9.5 45.0196 9.60536 45.2071 9.79289C45.3946 9.98043 45.5 10.2348 45.5 10.5V25.5C45.5 25.7652 45.3946 26.0196 45.2071 26.2071C45.0196 26.3946 44.7652 26.5 44.5 26.5H29.5C29.2348 26.5 28.9804 26.3946 28.7929 26.2071C28.6054 26.0196 28.5 25.7652 28.5 25.5V10.5C28.5 10.2348 28.6054 9.98043 28.7929 9.79289C28.9804 9.60536 29.2348 9.5 29.5 9.5H31.75H32.25V9V8.25C32.25 8.1837 32.2763 8.12011 32.3232 8.07322C32.3701 8.02634 32.4337 8 32.5 8C32.5663 8 32.6299 8.02634 32.6768 8.07322C32.7237 8.12011 32.75 8.1837 32.75 8.25V9V9.5H33.25H40.75H41.25V9V8.25C41.25 8.18369 41.2763 8.12011 41.3232 8.07322C41.3701 8.02634 41.4337 8 41.5 8C41.5663 8 41.6299 8.02634 41.6768 8.07322C41.7237 8.12011 41.75 8.18369 41.75 8.25V9ZM32.25 10.5V10H31.75H29.5H29V10.5V13.5V14H29.5H44.5H45V13.5V10.5V10H44.5H42.25H41.75V10.5V11.25C41.75 11.3163 41.7237 11.3799 41.6768 11.4268C41.6299 11.4737 41.5663 11.5 41.5 11.5C41.4337 11.5 41.3701 11.4737 41.3232 11.4268C41.2763 11.3799 41.25 11.3163 41.25 11.25V10.5V10H40.75H33.25H32.75V10.5V11.25C32.75 11.3163 32.7237 11.3799 32.6768 11.4268C32.6299 11.4737 32.5663 11.5 32.5 11.5C32.4337 11.5 32.3701 11.4737 32.3232 11.4268C32.2763 11.3799 32.25 11.3163 32.25 11.25V10.5ZM44.5 26H45V25.5V15V14.5H44.5H29.5H29V15V25.5V26H29.5H44.5ZM35 17.2496V17.25V23.25C35 23.3163 34.9737 23.3799 34.9268 23.4268C34.8799 23.4737 34.8163 23.5 34.75 23.5C34.6837 23.5 34.6201 23.4737 34.5732 23.4268C34.5263 23.3799 34.5 23.3163 34.5 23.25V18.4631V17.6525L33.7756 18.0163L33.362 18.224C33.3619 18.2241 33.3618 18.2242 33.3617 18.2242C33.3023 18.2538 33.2337 18.2586 33.1708 18.2376C33.1078 18.2166 33.0557 18.1714 33.026 18.112C32.9963 18.0526 32.9914 17.9838 33.0124 17.9208C33.0334 17.8578 33.0786 17.8057 33.138 17.776L34.638 17.026L34.6381 17.0259C34.6763 17.0068 34.7186 16.9978 34.7612 16.9997C34.8038 17.0016 34.8452 17.0144 34.8815 17.0368C34.9177 17.0592 34.9477 17.0906 34.9684 17.1278C34.9892 17.1651 35 17.207 35 17.2496ZM35.5 17.25V23.25C35.5 23.4489 35.421 23.6397 35.2803 23.7803C35.1397 23.921 34.9489 24 34.75 24C34.5511 24 34.3603 23.921 34.2197 23.7803C34.079 23.6397 34 23.4489 34 23.25V19.0226L34.2244 18.9099L34 18.4631H33.5L35.5 17.25Z" fill="white" stroke="white"/>
<path d="M23.0926 39.9588H21.9846C21.942 39.722 21.8627 39.5137 21.7467 39.3338C21.6307 39.1539 21.4886 39.0012 21.3206 38.8757C21.1525 38.7502 20.9643 38.6555 20.7559 38.5916C20.55 38.5277 20.331 38.4957 20.099 38.4957C19.6799 38.4957 19.3047 38.6011 18.9733 38.8118C18.6442 39.0225 18.3838 39.3314 18.192 39.7386C18.0026 40.1458 17.9079 40.643 17.9079 41.2301C17.9079 41.8219 18.0026 42.3215 18.192 42.7287C18.3838 43.1359 18.6454 43.4436 18.9768 43.652C19.3082 43.8603 19.6811 43.9645 20.0954 43.9645C20.3251 43.9645 20.5429 43.9337 20.7488 43.8721C20.9572 43.8082 21.1454 43.7147 21.3135 43.5916C21.4815 43.4685 21.6236 43.3182 21.7396 43.1406C21.858 42.9607 21.9396 42.7547 21.9846 42.5227L23.0926 42.5263C23.0334 42.8837 22.9186 43.2128 22.7481 43.5135C22.58 43.8118 22.3634 44.0698 22.0983 44.2876C21.8355 44.5031 21.5348 44.67 21.1963 44.7883C20.8577 44.9067 20.4884 44.9659 20.0883 44.9659C19.4586 44.9659 18.8975 44.8167 18.4051 44.5184C17.9127 44.2178 17.5244 43.7881 17.2403 43.2294C16.9586 42.6707 16.8177 42.0042 16.8177 41.2301C16.8177 40.4536 16.9598 39.7871 17.2439 39.2308C17.5279 38.6721 17.9162 38.2436 18.4086 37.9453C18.9011 37.6446 19.4609 37.4943 20.0883 37.4943C20.4742 37.4943 20.8341 37.5499 21.1679 37.6612C21.504 37.7701 21.8059 37.9311 22.0734 38.1442C22.3409 38.3549 22.5623 38.6129 22.7375 38.9183C22.9127 39.2213 23.031 39.5682 23.0926 39.9588ZM25.6677 44.9872C25.3221 44.9872 25.0096 44.9233 24.7302 44.7954C24.4509 44.6652 24.2295 44.477 24.0662 44.2308C23.9052 43.9846 23.8247 43.6827 23.8247 43.3253C23.8247 43.0175 23.8839 42.7642 24.0023 42.5653C24.1206 42.3665 24.2804 42.209 24.4817 42.093C24.6829 41.977 24.9078 41.8894 25.1564 41.8302C25.405 41.771 25.6583 41.7261 25.9163 41.6953C26.243 41.6574 26.5082 41.6266 26.7118 41.603C26.9154 41.5769 27.0633 41.5355 27.1557 41.4787C27.248 41.4219 27.2942 41.3295 27.2942 41.2017V41.1768C27.2942 40.8667 27.2066 40.6264 27.0314 40.4559C26.8586 40.2855 26.6005 40.2003 26.2572 40.2003C25.8997 40.2003 25.618 40.2796 25.4121 40.4382C25.2085 40.5944 25.0676 40.7684 24.9895 40.9602L23.9916 40.7329C24.11 40.4015 24.2828 40.134 24.5101 39.9304C24.7397 39.7244 25.0037 39.5753 25.302 39.4829C25.6003 39.3882 25.914 39.3409 26.243 39.3409C26.4608 39.3409 26.6916 39.3669 26.9355 39.419C27.1817 39.4687 27.4113 39.5611 27.6244 39.696C27.8399 39.8309 28.0162 40.0239 28.1535 40.2748C28.2908 40.5234 28.3595 40.8466 28.3595 41.2443V44.8665H27.3226V44.1207H27.28C27.2113 44.258 27.1083 44.393 26.971 44.5255C26.8337 44.6581 26.6573 44.7682 26.4419 44.8558C26.2265 44.9434 25.9684 44.9872 25.6677 44.9872ZM25.8986 44.1349C26.1921 44.1349 26.4431 44.0769 26.6514 43.9609C26.8621 43.8449 27.0219 43.6934 27.1308 43.5064C27.2421 43.317 27.2977 43.1146 27.2977 42.8991V42.196C27.2598 42.2339 27.1864 42.2694 27.0775 42.3025C26.971 42.3333 26.8491 42.3605 26.7118 42.3842C26.5745 42.4055 26.4407 42.4256 26.3105 42.4446C26.1803 42.4612 26.0714 42.4754 25.9838 42.4872C25.7778 42.5132 25.5896 42.557 25.4192 42.6186C25.2511 42.6801 25.1161 42.7689 25.0143 42.8849C24.9149 42.9986 24.8652 43.1501 24.8652 43.3395C24.8652 43.6023 24.9622 43.8011 25.1564 43.9361C25.3505 44.0686 25.5979 44.1349 25.8986 44.1349ZM30.5955 37.5937V44.8665H29.5337V37.5937H30.5955ZM34.1348 44.9765C33.5974 44.9765 33.1346 44.8617 32.7463 44.6321C32.3604 44.4001 32.0621 44.0746 31.8514 43.6555C31.6431 43.2341 31.5389 42.7405 31.5389 42.1747C31.5389 41.616 31.6431 41.1236 31.8514 40.6974C32.0621 40.2713 32.3557 39.9387 32.7321 39.6996C33.1109 39.4604 33.5536 39.3409 34.0603 39.3409C34.368 39.3409 34.6663 39.3918 34.9551 39.4936C35.244 39.5954 35.5032 39.7552 35.7328 39.973C35.9625 40.1908 36.1436 40.4737 36.2762 40.8217C36.4087 41.1674 36.475 41.5876 36.475 42.0824V42.4588H32.1391V41.6633H35.4345C35.4345 41.384 35.3777 41.1366 35.2641 40.9211C35.1505 40.7033 34.9906 40.5317 34.7847 40.4062C34.5811 40.2808 34.342 40.218 34.0674 40.218C33.7691 40.218 33.5086 40.2914 33.2861 40.4382C33.0659 40.5826 32.8955 40.772 32.7747 41.0064C32.6564 41.2384 32.5972 41.4905 32.5972 41.7628V42.3842C32.5972 42.7488 32.6611 43.0589 32.7889 43.3146C32.9192 43.5703 33.1003 43.7656 33.3323 43.9005C33.5643 44.0331 33.8353 44.0994 34.1455 44.0994C34.3467 44.0994 34.5302 44.071 34.6959 44.0142C34.8616 43.955 35.0049 43.8674 35.1256 43.7514C35.2463 43.6354 35.3387 43.4922 35.4026 43.3217L36.4076 43.5028C36.3271 43.7987 36.1826 44.058 35.9743 44.2805C35.7683 44.5007 35.5091 44.6723 35.1966 44.7954C34.8865 44.9162 34.5326 44.9765 34.1348 44.9765ZM38.4749 41.6278V44.8665H37.4131V39.4119H38.4323V40.2997H38.4998C38.6252 40.0109 38.8217 39.7789 39.0893 39.6037C39.3591 39.4285 39.6989 39.3409 40.1084 39.3409C40.4801 39.3409 40.8056 39.419 41.085 39.5753C41.3643 39.7291 41.581 39.9588 41.7348 40.2642C41.8887 40.5696 41.9657 40.9472 41.9657 41.397V44.8665H40.9039V41.5248C40.9039 41.1295 40.8009 40.8205 40.5949 40.598C40.389 40.3731 40.1061 40.2606 39.7462 40.2606C39.5 40.2606 39.281 40.3139 39.0893 40.4204C38.8999 40.527 38.7495 40.6832 38.6383 40.8892C38.5294 41.0928 38.4749 41.339 38.4749 41.6278ZM45.1916 44.973C44.7512 44.973 44.3582 44.8605 44.0126 44.6356C43.6693 44.4084 43.3994 44.0852 43.2029 43.6662C43.0088 43.2448 42.9118 42.7393 42.9118 42.1498C42.9118 41.5603 43.01 41.0561 43.2065 40.6371C43.4054 40.218 43.6776 39.8972 44.0233 39.6747C44.3689 39.4522 44.7607 39.3409 45.1987 39.3409C45.5372 39.3409 45.8095 39.3977 46.0154 39.5113C46.2238 39.6226 46.3848 39.7528 46.4984 39.902C46.6144 40.0511 46.7044 40.1825 46.7683 40.2961H46.8322V37.5937H47.894V44.8665H46.8571V44.0177H46.7683C46.7044 44.1337 46.612 44.2663 46.4913 44.4155C46.3729 44.5646 46.2096 44.6948 46.0012 44.8061C45.7929 44.9174 45.523 44.973 45.1916 44.973ZM45.426 44.0674C45.7314 44.0674 45.9894 43.987 46.2001 43.826C46.4132 43.6626 46.5742 43.4365 46.6831 43.1477C46.7943 42.8589 46.85 42.5227 46.85 42.1392C46.85 41.7604 46.7955 41.429 46.6866 41.1449C46.5777 40.8608 46.4179 40.6394 46.2072 40.4808C45.9965 40.3222 45.7361 40.2429 45.426 40.2429C45.1064 40.2429 44.84 40.3257 44.6269 40.4915C44.4139 40.6572 44.2529 40.8833 44.144 41.1697C44.0375 41.4562 43.9842 41.7793 43.9842 42.1392C43.9842 42.5038 44.0386 42.8317 44.1475 43.1228C44.2564 43.414 44.4174 43.6449 44.6305 43.8153C44.8459 43.9834 45.1111 44.0674 45.426 44.0674ZM50.7568 44.9872C50.4112 44.9872 50.0987 44.9233 49.8193 44.7954C49.5399 44.6652 49.3186 44.477 49.1552 44.2308C48.9943 43.9846 48.9138 43.6827 48.9138 43.3253C48.9138 43.0175 48.9729 42.7642 49.0913 42.5653C49.2097 42.3665 49.3695 42.209 49.5707 42.093C49.772 41.977 49.9969 41.8894 50.2454 41.8302C50.494 41.771 50.7473 41.7261 51.0054 41.6953C51.3321 41.6574 51.5972 41.6266 51.8008 41.603C52.0044 41.5769 52.1524 41.5355 52.2447 41.4787C52.3371 41.4219 52.3832 41.3295 52.3832 41.2017V41.1768C52.3832 40.8667 52.2956 40.6264 52.1204 40.4559C51.9476 40.2855 51.6896 40.2003 51.3463 40.2003C50.9888 40.2003 50.7071 40.2796 50.5011 40.4382C50.2975 40.5944 50.1567 40.7684 50.0785 40.9602L49.0807 40.7329C49.199 40.4015 49.3719 40.134 49.5991 39.9304C49.8288 39.7244 50.0927 39.5753 50.391 39.4829C50.6893 39.3882 51.003 39.3409 51.3321 39.3409C51.5499 39.3409 51.7807 39.3669 52.0246 39.419C52.2708 39.4687 52.5004 39.5611 52.7135 39.696C52.9289 39.8309 53.1053 40.0239 53.2426 40.2748C53.3799 40.5234 53.4486 40.8466 53.4486 41.2443V44.8665H52.4116V44.1207H52.369C52.3004 44.258 52.1974 44.393 52.0601 44.5255C51.9228 44.6581 51.7464 44.7682 51.5309 44.8558C51.3155 44.9434 51.0575 44.9872 50.7568 44.9872ZM50.9876 44.1349C51.2812 44.1349 51.5321 44.0769 51.7405 43.9609C51.9512 43.8449 52.111 43.6934 52.2199 43.5064C52.3311 43.317 52.3868 43.1146 52.3868 42.8991V42.196C52.3489 42.2339 52.2755 42.2694 52.1666 42.3025C52.0601 42.3333 51.9381 42.3605 51.8008 42.3842C51.6635 42.4055 51.5298 42.4256 51.3996 42.4446C51.2693 42.4612 51.1604 42.4754 51.0729 42.4872C50.8669 42.5132 50.6787 42.557 50.5082 42.6186C50.3401 42.6801 50.2052 42.7689 50.1034 42.8849C50.004 42.9986 49.9542 43.1501 49.9542 43.3395C49.9542 43.6023 50.0513 43.8011 50.2454 43.9361C50.4396 44.0686 50.687 44.1349 50.9876 44.1349ZM54.6228 44.8665V39.4119H55.6491V40.2784H55.7059C55.8053 39.9848 55.9805 39.754 56.2315 39.5859C56.4848 39.4155 56.7712 39.3302 57.0908 39.3302C57.1571 39.3302 57.2353 39.3326 57.3252 39.3373C57.4175 39.3421 57.4898 39.348 57.5418 39.3551V40.3707C57.4992 40.3589 57.4235 40.3459 57.3146 40.3317C57.2057 40.3151 57.0968 40.3068 56.9879 40.3068C56.7369 40.3068 56.5132 40.3601 56.3167 40.4666C56.1226 40.5708 55.9687 40.7164 55.855 40.9034C55.7414 41.088 55.6846 41.2987 55.6846 41.5355V44.8665H54.6228Z" fill="white"/>
</svg>
