<svg width="75" height="49" viewBox="0 0 75 49" fill="none" xmlns="http://www.w3.org/2000/svg">
<path d="M40.1389 16.2916L40.1392 16.2919C40.1735 16.3147 40.2016 16.3456 40.2211 16.3819C40.2406 16.4183 40.2507 16.4588 40.2507 16.5C40.2507 16.5412 40.2406 16.5817 40.2211 16.6181C40.2016 16.6544 40.1735 16.6853 40.1392 16.7081L40.1389 16.7084L35.6389 19.7084L35.6388 19.7084C35.6011 19.7336 35.5573 19.748 35.5121 19.7502C35.4669 19.7524 35.4219 19.7423 35.382 19.7209C35.3421 19.6995 35.3087 19.6677 35.2855 19.6289C35.2622 19.59 35.25 19.5456 35.25 19.5003V19.5V13.5V13.4997C35.25 13.4544 35.2622 13.41 35.2855 13.3711C35.3087 13.3323 35.3421 13.3005 35.382 13.2791C35.4219 13.2577 35.4669 13.2476 35.5121 13.2498C35.5573 13.252 35.6011 13.2664 35.6388 13.2915L35.6389 13.2916L40.1389 16.2916ZM35.75 18.0984V19.0326L36.5273 18.5145L38.9254 16.916L39.5506 16.4994L38.9249 16.0836L36.5267 14.4898L35.75 13.9736V14.9062V18.0984ZM28.0429 22.4571L27.6893 22.8107L28.0429 22.4571C27.8554 22.2696 27.75 22.0152 27.75 21.75V11.25C27.75 10.9848 27.8554 10.7304 28.0429 10.5429C28.2304 10.3554 28.4848 10.25 28.75 10.25H45.25C45.5152 10.25 45.7696 10.3554 45.9571 10.5429C46.1446 10.7304 46.25 10.9848 46.25 11.25V21.75C46.25 22.0152 46.1446 22.2696 45.9571 22.4571C45.7696 22.6446 45.5152 22.75 45.25 22.75H28.75C28.4848 22.75 28.2304 22.6446 28.0429 22.4571ZM45.25 22.25H45.75V21.75V11.25V10.75H45.25H28.75H28.25V11.25V21.75V22.25H28.75H45.25ZM46.25 25.5C46.25 25.5663 46.2237 25.6299 46.1768 25.6768C46.1299 25.7237 46.0663 25.75 46 25.75H28C27.9337 25.75 27.8701 25.7237 27.8232 25.6768C27.7763 25.6299 27.75 25.5663 27.75 25.5C27.75 25.4337 27.7763 25.3701 27.8232 25.3232C27.8701 25.2763 27.9337 25.25 28 25.25H46C46.0663 25.25 46.1299 25.2763 46.1768 25.3232C46.2237 25.3701 46.25 25.4337 46.25 25.5Z" fill="white" stroke="white"/>
<path d="M18.8727 39.9588H17.7648C17.7222 39.722 17.6429 39.5137 17.5268 39.3338C17.4108 39.1539 17.2688 39.0012 17.1007 38.8757C16.9326 38.7502 16.7444 38.6555 16.5361 38.5916C16.3301 38.5277 16.1111 38.4957 15.8791 38.4957C15.4601 38.4957 15.0849 38.6011 14.7534 38.8118C14.4243 39.0225 14.1639 39.3314 13.9722 39.7386C13.7828 40.1458 13.6881 40.643 13.6881 41.2301C13.6881 41.8219 13.7828 42.3215 13.9722 42.7287C14.1639 43.1359 14.4255 43.4436 14.757 43.652C15.0884 43.8603 15.4613 43.9645 15.8756 43.9645C16.1052 43.9645 16.323 43.9337 16.529 43.8721C16.7373 43.8082 16.9255 43.7147 17.0936 43.5916C17.2617 43.4685 17.4037 43.3182 17.5197 43.1406C17.6381 42.9607 17.7198 42.7547 17.7648 42.5227L18.8727 42.5263C18.8135 42.8837 18.6987 43.2128 18.5283 43.5135C18.3602 43.8118 18.1436 44.0698 17.8784 44.2876C17.6156 44.5031 17.315 44.67 16.9764 44.7883C16.6379 44.9067 16.2686 44.9659 15.8685 44.9659C15.2387 44.9659 14.6777 44.8167 14.1852 44.5184C13.6928 44.2178 13.3045 43.7881 13.0205 43.2294C12.7387 42.6707 12.5979 42.0042 12.5979 41.2301C12.5979 40.4536 12.7399 39.7871 13.024 39.2308C13.3081 38.6721 13.6964 38.2436 14.1888 37.9453C14.6812 37.6446 15.2411 37.4943 15.8685 37.4943C16.2544 37.4943 16.6142 37.5499 16.948 37.6612C17.2842 37.7701 17.586 37.9311 17.8536 38.1442C18.1211 38.3549 18.3424 38.6129 18.5176 38.9183C18.6928 39.2213 18.8112 39.5682 18.8727 39.9588ZM22.1581 44.9765C21.6468 44.9765 21.2005 44.8594 20.8193 44.625C20.4382 44.3906 20.1423 44.0627 19.9316 43.6413C19.7209 43.2199 19.6155 42.7275 19.6155 42.164C19.6155 41.5982 19.7209 41.1034 19.9316 40.6797C20.1423 40.2559 20.4382 39.9268 20.8193 39.6924C21.2005 39.4581 21.6468 39.3409 22.1581 39.3409C22.6695 39.3409 23.1157 39.4581 23.4969 39.6924C23.8781 39.9268 24.174 40.2559 24.3847 40.6797C24.5954 41.1034 24.7007 41.5982 24.7007 42.164C24.7007 42.7275 24.5954 43.2199 24.3847 43.6413C24.174 44.0627 23.8781 44.3906 23.4969 44.625C23.1157 44.8594 22.6695 44.9765 22.1581 44.9765ZM22.1617 44.0852C22.4931 44.0852 22.7677 43.9976 22.9855 43.8224C23.2033 43.6472 23.3643 43.414 23.4685 43.1228C23.575 42.8317 23.6283 42.5109 23.6283 42.1605C23.6283 41.8125 23.575 41.4929 23.4685 41.2017C23.3643 40.9081 23.2033 40.6726 22.9855 40.495C22.7677 40.3174 22.4931 40.2287 22.1617 40.2287C21.8279 40.2287 21.5509 40.3174 21.3307 40.495C21.1129 40.6726 20.9507 40.9081 20.8442 41.2017C20.74 41.4929 20.688 41.8125 20.688 42.1605C20.688 42.5109 20.74 42.8317 20.8442 43.1228C20.9507 43.414 21.1129 43.6472 21.3307 43.8224C21.5509 43.9976 21.8279 44.0852 22.1617 44.0852ZM25.6459 44.8665V39.4119H26.6651V40.2997H26.7326C26.8462 39.999 27.0321 39.7647 27.2901 39.5966C27.5482 39.4261 27.8571 39.3409 28.2169 39.3409C28.5815 39.3409 28.8869 39.4261 29.1331 39.5966C29.3817 39.767 29.5652 40.0014 29.6836 40.2997H29.7404C29.8706 40.0085 30.0777 39.7765 30.3618 39.6037C30.6459 39.4285 30.9845 39.3409 31.3775 39.3409C31.8723 39.3409 32.2759 39.496 32.5884 39.8061C32.9033 40.1162 33.0607 40.5838 33.0607 41.2088V44.8665H31.9989V41.3082C31.9989 40.9389 31.8983 40.6714 31.6971 40.5057C31.4958 40.3399 31.2555 40.2571 30.9762 40.2571C30.6305 40.2571 30.3618 40.3636 30.1701 40.5767C29.9783 40.7874 29.8824 41.0585 29.8824 41.3899V44.8665H28.8242V41.2407C28.8242 40.9448 28.7319 40.7069 28.5472 40.527C28.3625 40.347 28.1223 40.2571 27.8263 40.2571C27.6251 40.2571 27.4393 40.3103 27.2688 40.4169C27.1007 40.521 26.9646 40.6666 26.8604 40.8537C26.7586 41.0407 26.7077 41.2573 26.7077 41.5035V44.8665H25.6459ZM34.2438 44.8665V39.4119H35.263V40.2997H35.3305C35.4441 39.999 35.6299 39.7647 35.888 39.5966C36.146 39.4261 36.455 39.3409 36.8148 39.3409C37.1794 39.3409 37.4848 39.4261 37.731 39.5966C37.9796 39.767 38.1631 40.0014 38.2815 40.2997H38.3383C38.4685 40.0085 38.6756 39.7765 38.9597 39.6037C39.2438 39.4285 39.5824 39.3409 39.9754 39.3409C40.4701 39.3409 40.8738 39.496 41.1863 39.8061C41.5012 40.1162 41.6586 40.5838 41.6586 41.2088V44.8665H40.5968V41.3082C40.5968 40.9389 40.4962 40.6714 40.295 40.5057C40.0937 40.3399 39.8534 40.2571 39.5741 40.2571C39.2284 40.2571 38.9597 40.3636 38.768 40.5767C38.5762 40.7874 38.4803 41.0585 38.4803 41.3899V44.8665H37.4221V41.2407C37.4221 40.9448 37.3298 40.7069 37.1451 40.527C36.9604 40.347 36.7201 40.2571 36.4242 40.2571C36.223 40.2571 36.0371 40.3103 35.8667 40.4169C35.6986 40.521 35.5625 40.6666 35.4583 40.8537C35.3565 41.0407 35.3056 41.2573 35.3056 41.5035V44.8665H34.2438ZM46.297 42.6044V39.4119H47.3623V44.8665H46.3183V43.9219H46.2615C46.136 44.213 45.9347 44.4557 45.6578 44.6498C45.3831 44.8416 45.041 44.9375 44.6315 44.9375C44.2811 44.9375 43.971 44.8605 43.7011 44.7067C43.4336 44.5504 43.2229 44.3196 43.069 44.0142C42.9175 43.7088 42.8417 43.3312 42.8417 42.8814V39.4119H43.9035V42.7535C43.9035 43.1252 44.0065 43.4211 44.2124 43.6413C44.4184 43.8615 44.6859 43.9716 45.015 43.9716C45.2139 43.9716 45.4115 43.9219 45.608 43.8224C45.8069 43.723 45.9714 43.5727 46.1017 43.3714C46.2342 43.1702 46.2993 42.9145 46.297 42.6044ZM49.6108 41.6278V44.8665H48.549V39.4119H49.5681V40.2997H49.6356C49.7611 40.0109 49.9576 39.7789 50.2251 39.6037C50.495 39.4285 50.8347 39.3409 51.2443 39.3409C51.616 39.3409 51.9415 39.419 52.2208 39.5753C52.5002 39.7291 52.7168 39.9588 52.8707 40.2642C53.0246 40.5696 53.1015 40.9472 53.1015 41.397V44.8665H52.0397V41.5248C52.0397 41.1295 51.9368 40.8205 51.7308 40.598C51.5248 40.3731 51.2419 40.2606 50.8821 40.2606C50.6359 40.2606 50.4169 40.3139 50.2251 40.4204C50.0357 40.527 49.8854 40.6832 49.7741 40.8892C49.6652 41.0928 49.6108 41.339 49.6108 41.6278ZM54.2855 44.8665V39.4119H55.3473V44.8665H54.2855ZM54.8218 38.5703C54.6371 38.5703 54.4785 38.5087 54.3459 38.3856C54.2157 38.2602 54.1506 38.111 54.1506 37.9382C54.1506 37.763 54.2157 37.6139 54.3459 37.4907C54.4785 37.3653 54.6371 37.3025 54.8218 37.3025C55.0064 37.3025 55.1639 37.3653 55.2941 37.4907C55.4266 37.6139 55.4929 37.763 55.4929 37.9382C55.4929 38.111 55.4266 38.2602 55.2941 38.3856C55.1639 38.5087 55.0064 38.5703 54.8218 38.5703ZM59.0819 39.4119V40.2642H56.1025V39.4119H59.0819ZM56.9015 38.1051H57.9633V43.2649C57.9633 43.4709 57.9941 43.6259 58.0557 43.7301C58.1172 43.8319 58.1965 43.9017 58.2936 43.9396C58.393 43.9751 58.5007 43.9929 58.6167 43.9929C58.702 43.9929 58.7765 43.987 58.8405 43.9751C58.9044 43.9633 58.9541 43.9538 58.9896 43.9467L59.1814 44.8238C59.1198 44.8475 59.0322 44.8712 58.9186 44.8949C58.8049 44.9209 58.6629 44.9351 58.4924 44.9375C58.2131 44.9422 57.9527 44.8925 57.7112 44.7883C57.4697 44.6842 57.2744 44.5232 57.1253 44.3054C56.9761 44.0876 56.9015 43.8141 56.9015 43.4851V38.1051ZM60.6876 46.9119C60.529 46.9119 60.3846 46.8989 60.2544 46.8728C60.1242 46.8492 60.0271 46.8231 59.9632 46.7947L60.2189 45.9247C60.413 45.9768 60.5858 45.9993 60.7374 45.9922C60.8889 45.9851 61.0226 45.9282 61.1386 45.8217C61.257 45.7152 61.3612 45.5412 61.4511 45.2997L61.5825 44.9375L59.5868 39.4119H60.7232L62.1045 43.6449H62.1614L63.5428 39.4119H64.6827L62.4348 45.5944C62.3306 45.8785 62.1981 46.1188 62.0371 46.3153C61.8761 46.5142 61.6843 46.6633 61.4618 46.7628C61.2392 46.8622 60.9812 46.9119 60.6876 46.9119Z" fill="white"/>
</svg>
