<svg width="74" height="49" viewBox="0 0 74 49" fill="none" xmlns="http://www.w3.org/2000/svg">
<path d="M45.1722 16.0921L45.1722 16.0921L45.1769 16.0965C45.2788 16.1902 45.3601 16.304 45.4157 16.4307C45.4713 16.5574 45.5 16.6943 45.5 16.8327V16.8328V25.5C45.5 25.7652 45.3946 26.0196 45.2071 26.2071C45.0196 26.3946 44.7652 26.5 44.5 26.5H40C39.7348 26.5 39.4804 26.3946 39.2929 26.2071C39.1054 26.0196 39 25.7652 39 25.5V21V20.5H38.5H35.5H35V21V25.5C35 25.7652 34.8946 26.0196 34.7071 26.2071C34.5196 26.3946 34.2652 26.5 34 26.5H29.5C29.2348 26.5 28.9804 26.3946 28.7929 26.2071C28.6054 26.0196 28.5 25.7652 28.5 25.5V16.8328V16.8327C28.5 16.6943 28.5287 16.5574 28.5843 16.4307L28.1265 16.2298L28.5843 16.4307C28.6399 16.304 28.7212 16.1902 28.8231 16.0965L28.8232 16.0965L28.828 16.0919L36.3196 9.01567L36.3248 9.01077L36.3298 9.00573L36.3309 9.00465C36.5139 8.84173 36.7505 8.75159 36.9958 8.75159C37.2397 8.75159 37.475 8.84072 37.6576 9.00192C37.6637 9.00803 37.67 9.014 37.6764 9.01984L45.1722 16.0921ZM44.5 26H44.9999L45 25.5L45.0009 16.831L45.001 16.6098L44.8373 16.4609L44.8304 16.4547L37.3432 9.38642L36.9999 9.06232L36.6567 9.38648L29.1705 16.4567L29.1637 16.4628L29 16.6116V16.8328V25.5V26H29.5H34H34.5V25.5V21C34.5 20.7348 34.6054 20.4804 34.7929 20.2929C34.9804 20.1053 35.2348 20 35.5 20H38.5C38.7652 20 39.0196 20.1053 39.2071 20.2929C39.3946 20.4804 39.5 20.7348 39.5 21V25.5V26H40H44.5Z" fill="white" stroke="white"/>
<path d="M17.894 37.5937H19.2257L21.541 43.2471H21.6262L23.9416 37.5937H25.2733V44.8665H24.2292V39.6037H24.1618L22.0169 44.8558H21.1504L19.0055 39.6001H18.938V44.8665H17.894V37.5937ZM28.1307 44.9872C27.7851 44.9872 27.4726 44.9233 27.1932 44.7954C26.9139 44.6652 26.6925 44.477 26.5292 44.2308C26.3682 43.9846 26.2877 43.6827 26.2877 43.3253C26.2877 43.0175 26.3469 42.7642 26.4653 42.5653C26.5836 42.3665 26.7434 42.209 26.9447 42.093C27.1459 41.977 27.3708 41.8894 27.6194 41.8302C27.868 41.771 28.1213 41.7261 28.3793 41.6953C28.706 41.6574 28.9712 41.6266 29.1748 41.603C29.3784 41.5769 29.5263 41.5355 29.6187 41.4787C29.711 41.4219 29.7572 41.3295 29.7572 41.2017V41.1768C29.7572 40.8667 29.6696 40.6264 29.4944 40.4559C29.3216 40.2855 29.0635 40.2003 28.7202 40.2003C28.3628 40.2003 28.081 40.2796 27.8751 40.4382C27.6715 40.5944 27.5306 40.7684 27.4525 40.9602L26.4546 40.7329C26.573 40.4015 26.7458 40.134 26.9731 39.9304C27.2027 39.7244 27.4667 39.5753 27.765 39.4829C28.0633 39.3882 28.377 39.3409 28.706 39.3409C28.9238 39.3409 29.1547 39.3669 29.3985 39.419C29.6447 39.4687 29.8744 39.5611 30.0874 39.696C30.3029 39.8309 30.4792 40.0239 30.6165 40.2748C30.7539 40.5234 30.8225 40.8466 30.8225 41.2443V44.8665H29.7856V44.1207H29.743C29.6743 44.258 29.5713 44.393 29.434 44.5255C29.2967 44.6581 29.1203 44.7682 28.9049 44.8558C28.6895 44.9434 28.4314 44.9872 28.1307 44.9872ZM28.3616 44.1349C28.6551 44.1349 28.9061 44.0769 29.1144 43.9609C29.3251 43.8449 29.4849 43.6934 29.5938 43.5064C29.7051 43.317 29.7607 43.1146 29.7607 42.8991V42.196C29.7228 42.2339 29.6494 42.2694 29.5405 42.3025C29.434 42.3333 29.3121 42.3605 29.1748 42.3842C29.0375 42.4055 28.9037 42.4256 28.7735 42.4446C28.6433 42.4612 28.5344 42.4754 28.4468 42.4872C28.2408 42.5132 28.0526 42.557 27.8822 42.6186C27.7141 42.6801 27.5791 42.7689 27.4773 42.8849C27.3779 42.9986 27.3282 43.1501 27.3282 43.3395C27.3282 43.6023 27.4253 43.8011 27.6194 43.9361C27.8135 44.0686 28.0609 44.1349 28.3616 44.1349ZM34.5429 39.4119V40.2642H31.5635V39.4119H34.5429ZM32.3625 38.1051H33.4243V43.2649C33.4243 43.4709 33.4551 43.6259 33.5166 43.7301C33.5782 43.8319 33.6575 43.9017 33.7546 43.9396C33.854 43.9751 33.9617 43.9929 34.0777 43.9929C34.1629 43.9929 34.2375 43.987 34.3014 43.9751C34.3654 43.9633 34.4151 43.9538 34.4506 43.9467L34.6423 44.8238C34.5808 44.8475 34.4932 44.8712 34.3796 44.8949C34.2659 44.9209 34.1239 44.9351 33.9534 44.9375C33.6741 44.9422 33.4137 44.8925 33.1722 44.7883C32.9307 44.6842 32.7354 44.5232 32.5862 44.3054C32.4371 44.0876 32.3625 43.8141 32.3625 43.4851V38.1051ZM37.7164 44.9765C37.1885 44.9765 36.734 44.857 36.3528 44.6179C35.974 44.3764 35.6828 44.0438 35.4792 43.62C35.2756 43.1962 35.1738 42.7109 35.1738 42.164C35.1738 41.6101 35.278 41.1212 35.4863 40.6974C35.6947 40.2713 35.9882 39.9387 36.367 39.6996C36.7458 39.4604 37.1921 39.3409 37.7058 39.3409C38.1201 39.3409 38.4894 39.4178 38.8137 39.5717C39.1381 39.7232 39.3997 39.9363 39.5985 40.2109C39.7998 40.4855 39.9193 40.8063 39.9572 41.1733H38.9238C38.867 40.9176 38.7368 40.6974 38.5332 40.5128C38.332 40.3281 38.0621 40.2358 37.7235 40.2358C37.4276 40.2358 37.1684 40.3139 36.9458 40.4701C36.7257 40.624 36.554 40.8442 36.4309 41.1307C36.3078 41.4148 36.2463 41.7509 36.2463 42.1392C36.2463 42.5369 36.3066 42.8802 36.4274 43.169C36.5481 43.4578 36.7186 43.6816 36.9387 43.8402C37.1613 43.9988 37.4229 44.0781 37.7235 44.0781C37.9248 44.0781 38.1071 44.0414 38.2704 43.968C38.4361 43.8923 38.5746 43.7845 38.6859 43.6449C38.7995 43.5052 38.8788 43.3371 38.9238 43.1406H39.9572C39.9193 43.4933 39.8045 43.8082 39.6127 44.0852C39.421 44.3622 39.1641 44.58 38.8422 44.7386C38.5225 44.8972 38.1473 44.9765 37.7164 44.9765ZM41.9145 41.6278V44.8665H40.8527V37.5937H41.9003V40.2997H41.9677C42.0956 40.0061 42.2909 39.7729 42.5537 39.6001C42.8165 39.4273 43.1597 39.3409 43.5835 39.3409C43.9576 39.3409 44.2843 39.4178 44.5636 39.5717C44.8453 39.7256 45.0631 39.9552 45.217 40.2606C45.3733 40.5637 45.4514 40.9424 45.4514 41.397V44.8665H44.3896V41.5248C44.3896 41.1247 44.2866 40.8146 44.0807 40.5944C43.8747 40.3719 43.5882 40.2606 43.2213 40.2606C42.9703 40.2606 42.7454 40.3139 42.5466 40.4204C42.3501 40.527 42.195 40.6832 42.0814 40.8892C41.9701 41.0928 41.9145 41.339 41.9145 41.6278ZM48.9792 44.9765C48.4418 44.9765 47.9789 44.8617 47.5907 44.6321C47.2048 44.4001 46.9065 44.0746 46.6958 43.6555C46.4874 43.2341 46.3833 42.7405 46.3833 42.1747C46.3833 41.616 46.4874 41.1236 46.6958 40.6974C46.9065 40.2713 47.2 39.9387 47.5765 39.6996C47.9552 39.4604 48.398 39.3409 48.9046 39.3409C49.2124 39.3409 49.5106 39.3918 49.7995 39.4936C50.0883 39.5954 50.3475 39.7552 50.5772 39.973C50.8068 40.1908 50.9879 40.4737 51.1205 40.8217C51.2531 41.1674 51.3194 41.5876 51.3194 42.0824V42.4588H46.9834V41.6633H50.2789C50.2789 41.384 50.2221 41.1366 50.1084 40.9211C49.9948 40.7033 49.835 40.5317 49.629 40.4062C49.4254 40.2808 49.1863 40.218 48.9117 40.218C48.6134 40.218 48.353 40.2914 48.1304 40.4382C47.9103 40.5826 47.7398 40.772 47.6191 41.0064C47.5007 41.2384 47.4415 41.4905 47.4415 41.7628V42.3842C47.4415 42.7488 47.5054 43.0589 47.6333 43.3146C47.7635 43.5703 47.9446 43.7656 48.1766 43.9005C48.4086 44.0331 48.6797 44.0994 48.9898 44.0994C49.191 44.0994 49.3745 44.071 49.5402 44.0142C49.706 43.955 49.8492 43.8674 49.9699 43.7514C50.0907 43.6354 50.183 43.4922 50.2469 43.3217L51.2519 43.5028C51.1714 43.7987 51.027 44.058 50.8186 44.2805C50.6127 44.5007 50.3535 44.6723 50.041 44.7954C49.7308 44.9162 49.3769 44.9765 48.9792 44.9765ZM56.3448 40.7436L55.3824 40.914C55.3422 40.7909 55.2783 40.6737 55.1907 40.5625C55.1055 40.4512 54.9895 40.3601 54.8427 40.289C54.6959 40.218 54.5124 40.1825 54.2923 40.1825C53.9916 40.1825 53.7406 40.25 53.5394 40.3849C53.3382 40.5175 53.2376 40.6891 53.2376 40.8998C53.2376 41.0821 53.305 41.2289 53.44 41.3402C53.5749 41.4514 53.7927 41.5426 54.0934 41.6136L54.9599 41.8125C55.4618 41.9285 55.8358 42.1072 56.082 42.3487C56.3282 42.5902 56.4513 42.9039 56.4513 43.2898C56.4513 43.6165 56.3566 43.9076 56.1673 44.1633C55.9802 44.4166 55.7186 44.6155 55.3824 44.7599C55.0486 44.9043 54.6616 44.9765 54.2212 44.9765C53.6104 44.9765 53.1121 44.8463 52.7262 44.5859C52.3403 44.3231 52.1036 43.9503 52.016 43.4673L53.0423 43.3111C53.1062 43.5786 53.2376 43.781 53.4364 43.9183C53.6353 44.0532 53.8945 44.1207 54.2141 44.1207C54.5621 44.1207 54.8403 44.0485 55.0486 43.9041C55.257 43.7573 55.3611 43.5786 55.3611 43.3679C55.3611 43.1974 55.2972 43.0542 55.1694 42.9382C55.0439 42.8222 54.851 42.7346 54.5905 42.6754L53.6673 42.473C53.1583 42.357 52.7818 42.1723 52.538 41.919C52.2965 41.6657 52.1758 41.3449 52.1758 40.9567C52.1758 40.6347 52.2657 40.353 52.4457 40.1115C52.6256 39.87 52.8742 39.6818 53.1914 39.5469C53.5086 39.4095 53.872 39.3409 54.2816 39.3409C54.8711 39.3409 55.3351 39.4687 55.6736 39.7244C56.0122 39.9777 56.2359 40.3174 56.3448 40.7436Z" fill="white"/>
</svg>
