<svg width="74" height="49" viewBox="0 0 74 49" fill="none" xmlns="http://www.w3.org/2000/svg">
<mask id="path-1-inside-1_301_1626" fill="white">
<path d="M37 13.5C36.11 13.5 35.24 13.764 34.5 14.2584C33.76 14.7529 33.1832 15.4557 32.8426 16.278C32.502 17.1002 32.4129 18.005 32.5865 18.8779C32.7601 19.7509 33.1887 20.5527 33.8181 21.182C34.4474 21.8114 35.2492 22.2399 36.1221 22.4136C36.9951 22.5872 37.8999 22.4981 38.7221 22.1575C39.5444 21.8169 40.2472 21.2401 40.7417 20.5001C41.2361 19.7601 41.5 18.8901 41.5 18C41.4988 16.807 41.0243 15.6631 40.1807 14.8194C39.337 13.9758 38.1931 13.5013 37 13.5ZM37 21C36.4067 21 35.8267 20.8241 35.3333 20.4945C34.84 20.1648 34.4555 19.6963 34.2284 19.1481C34.0013 18.5999 33.9419 17.9967 34.0577 17.4148C34.1734 16.8328 34.4592 16.2983 34.8787 15.8787C35.2983 15.4592 35.8328 15.1734 36.4148 15.0577C36.9967 14.9419 37.5999 15.0013 38.1481 15.2284C38.6963 15.4555 39.1648 15.84 39.4945 16.3333C39.8241 16.8267 40 17.4067 40 18C40 18.7957 39.684 19.5588 39.1214 20.1214C38.5588 20.684 37.7957 21 37 21ZM45.25 18.2025C45.2538 18.0675 45.2538 17.9325 45.25 17.7975L46.6488 16.05C46.7221 15.9583 46.7729 15.8506 46.797 15.7356C46.8211 15.6207 46.8179 15.5017 46.7875 15.3882C46.5582 14.5262 46.2152 13.6987 45.7675 12.9272C45.7089 12.8263 45.6276 12.7404 45.5299 12.6764C45.4322 12.6125 45.321 12.5722 45.205 12.5588L42.9813 12.3113C42.8888 12.2138 42.795 12.12 42.7 12.03L42.4375 9.80067C42.424 9.68462 42.3836 9.57333 42.3195 9.47567C42.2554 9.37801 42.1693 9.29668 42.0682 9.23817C41.2965 8.79131 40.4689 8.44864 39.6072 8.21911C39.4937 8.18891 39.3746 8.18583 39.2597 8.21009C39.1447 8.23435 39.037 8.28529 38.9454 8.35879L37.2025 9.75004C37.0675 9.75004 36.9325 9.75004 36.7975 9.75004L35.05 8.35411C34.9583 8.28076 34.8506 8.23 34.7356 8.2059C34.6207 8.1818 34.5017 8.18504 34.3882 8.21536C33.5264 8.44507 32.6988 8.78806 31.9272 9.23536C31.8263 9.29397 31.7404 9.37535 31.6764 9.473C31.6125 9.57065 31.5722 9.68189 31.5588 9.79786L31.3113 12.0254C31.2138 12.1185 31.12 12.2122 31.03 12.3066L28.8007 12.5625C28.6846 12.576 28.5733 12.6165 28.4757 12.6806C28.378 12.7447 28.2967 12.8308 28.2382 12.9319C27.7913 13.7036 27.4486 14.5311 27.2191 15.3929C27.1889 15.5064 27.1858 15.6255 27.2101 15.7404C27.2344 15.8554 27.2853 15.9631 27.3588 16.0547L28.75 17.7975C28.75 17.9325 28.75 18.0675 28.75 18.2025L27.3541 19.95C27.2808 20.0418 27.23 20.1495 27.2059 20.2645C27.1818 20.3794 27.185 20.4984 27.2154 20.6119C27.4447 21.4739 27.7877 22.3014 28.2354 23.0729C28.294 23.1738 28.3753 23.2597 28.473 23.3236C28.5707 23.3876 28.6819 23.4279 28.7979 23.4413L31.0216 23.6888C31.1147 23.7863 31.2085 23.88 31.3029 23.97L31.5625 26.1994C31.576 26.3155 31.6165 26.4268 31.6806 26.5244C31.7447 26.6221 31.8308 26.7034 31.9319 26.7619C32.7036 27.2088 33.5311 27.5515 34.3929 27.781C34.5064 27.8112 34.6255 27.8143 34.7404 27.79C34.8554 27.7657 34.9631 27.7148 35.0547 27.6413L36.7975 26.25C36.9325 26.2538 37.0675 26.2538 37.2025 26.25L38.95 27.6488C39.0418 27.7221 39.1495 27.7729 39.2645 27.797C39.3794 27.8211 39.4984 27.8179 39.6119 27.7875C40.4739 27.5582 41.3014 27.2152 42.0729 26.7675C42.1738 26.7089 42.2597 26.6276 42.3236 26.5299C42.3876 26.4322 42.4279 26.321 42.4413 26.205L42.6888 23.9813C42.7863 23.8888 42.88 23.795 42.97 23.7L45.1994 23.4375C45.3155 23.424 45.4268 23.3836 45.5244 23.3195C45.6221 23.2554 45.7034 23.1693 45.7619 23.0682C46.2088 22.2965 46.5515 21.4689 46.781 20.6072C46.8112 20.4937 46.8143 20.3746 46.79 20.2597C46.7657 20.1447 46.7148 20.037 46.6413 19.9454L45.25 18.2025ZM43.7407 17.5932C43.7566 17.8642 43.7566 18.1359 43.7407 18.4069C43.7295 18.5925 43.7876 18.7756 43.9038 18.9207L45.2341 20.5829C45.0815 21.068 44.886 21.5386 44.65 21.9891L42.5313 22.2291C42.3468 22.2496 42.1764 22.3378 42.0532 22.4766C41.8727 22.6796 41.6805 22.8718 41.4775 23.0522C41.3387 23.1755 41.2505 23.3458 41.23 23.5304L40.9947 25.6472C40.5443 25.8833 40.0736 26.0788 39.5885 26.2313L37.9254 24.901C37.7923 24.7946 37.627 24.7368 37.4566 24.7369H37.4116C37.1406 24.7529 36.8689 24.7529 36.5979 24.7369C36.4123 24.7257 36.2292 24.7839 36.0841 24.9L34.4172 26.2313C33.9321 26.0786 33.4615 25.8832 33.011 25.6472L32.771 23.5313C32.7505 23.3468 32.6623 23.1764 32.5235 23.0532C32.3205 22.8727 32.1283 22.6805 31.9479 22.4775C31.8246 22.3387 31.6542 22.2505 31.4697 22.23L29.3529 21.9938C29.1168 21.5433 28.9213 21.0727 28.7688 20.5875L30.0991 18.9244C30.2153 18.7793 30.2734 18.5962 30.2622 18.4107C30.2463 18.1397 30.2463 17.8679 30.2622 17.5969C30.2734 17.4114 30.2153 17.2283 30.0991 17.0832L28.7688 15.4172C28.9214 14.9321 29.1169 14.4615 29.3529 14.011L31.4688 13.771C31.6533 13.7505 31.8237 13.6623 31.9469 13.5235C32.1274 13.3205 32.3196 13.1283 32.5225 12.9479C32.6619 12.8245 32.7505 12.6538 32.771 12.4688L33.0063 10.3529C33.4568 10.1168 33.9274 9.92132 34.4125 9.76879L36.0757 11.0991C36.2208 11.2153 36.4039 11.2734 36.5894 11.2622C36.8604 11.2463 37.1322 11.2463 37.4032 11.2622C37.5887 11.2734 37.7718 11.2153 37.9169 11.0991L39.5829 9.76879C40.068 9.92144 40.5386 10.1169 40.9891 10.3529L41.2291 12.4688C41.2496 12.6533 41.3378 12.8237 41.4766 12.9469C41.6796 13.1274 41.8718 13.3196 42.0522 13.5225C42.1755 13.6614 42.3458 13.7496 42.5304 13.77L44.6472 14.0054C44.8833 14.4558 45.0788 14.9264 45.2313 15.4116L43.901 17.0747C43.7837 17.2211 43.7255 17.406 43.7379 17.5932H43.7407Z"/>
</mask>
<path d="M37 13.5C36.11 13.5 35.24 13.764 34.5 14.2584C33.76 14.7529 33.1832 15.4557 32.8426 16.278C32.502 17.1002 32.4129 18.005 32.5865 18.8779C32.7601 19.7509 33.1887 20.5527 33.8181 21.182C34.4474 21.8114 35.2492 22.2399 36.1221 22.4136C36.9951 22.5872 37.8999 22.4981 38.7221 22.1575C39.5444 21.8169 40.2472 21.2401 40.7417 20.5001C41.2361 19.7601 41.5 18.8901 41.5 18C41.4988 16.807 41.0243 15.6631 40.1807 14.8194C39.337 13.9758 38.1931 13.5013 37 13.5ZM37 21C36.4067 21 35.8267 20.8241 35.3333 20.4945C34.84 20.1648 34.4555 19.6963 34.2284 19.1481C34.0013 18.5999 33.9419 17.9967 34.0577 17.4148C34.1734 16.8328 34.4592 16.2983 34.8787 15.8787C35.2983 15.4592 35.8328 15.1734 36.4148 15.0577C36.9967 14.9419 37.5999 15.0013 38.1481 15.2284C38.6963 15.4555 39.1648 15.84 39.4945 16.3333C39.8241 16.8267 40 17.4067 40 18C40 18.7957 39.684 19.5588 39.1214 20.1214C38.5588 20.684 37.7957 21 37 21ZM45.25 18.2025C45.2538 18.0675 45.2538 17.9325 45.25 17.7975L46.6488 16.05C46.7221 15.9583 46.7729 15.8506 46.797 15.7356C46.8211 15.6207 46.8179 15.5017 46.7875 15.3882C46.5582 14.5262 46.2152 13.6987 45.7675 12.9272C45.7089 12.8263 45.6276 12.7404 45.5299 12.6764C45.4322 12.6125 45.321 12.5722 45.205 12.5588L42.9813 12.3113C42.8888 12.2138 42.795 12.12 42.7 12.03L42.4375 9.80067C42.424 9.68462 42.3836 9.57333 42.3195 9.47567C42.2554 9.37801 42.1693 9.29668 42.0682 9.23817C41.2965 8.79131 40.4689 8.44864 39.6072 8.21911C39.4937 8.18891 39.3746 8.18583 39.2597 8.21009C39.1447 8.23435 39.037 8.28529 38.9454 8.35879L37.2025 9.75004C37.0675 9.75004 36.9325 9.75004 36.7975 9.75004L35.05 8.35411C34.9583 8.28076 34.8506 8.23 34.7356 8.2059C34.6207 8.1818 34.5017 8.18504 34.3882 8.21536C33.5264 8.44507 32.6988 8.78806 31.9272 9.23536C31.8263 9.29397 31.7404 9.37535 31.6764 9.473C31.6125 9.57065 31.5722 9.68189 31.5588 9.79786L31.3113 12.0254C31.2138 12.1185 31.12 12.2122 31.03 12.3066L28.8007 12.5625C28.6846 12.576 28.5733 12.6165 28.4757 12.6806C28.378 12.7447 28.2967 12.8308 28.2382 12.9319C27.7913 13.7036 27.4486 14.5311 27.2191 15.3929C27.1889 15.5064 27.1858 15.6255 27.2101 15.7404C27.2344 15.8554 27.2853 15.9631 27.3588 16.0547L28.75 17.7975C28.75 17.9325 28.75 18.0675 28.75 18.2025L27.3541 19.95C27.2808 20.0418 27.23 20.1495 27.2059 20.2645C27.1818 20.3794 27.185 20.4984 27.2154 20.6119C27.4447 21.4739 27.7877 22.3014 28.2354 23.0729C28.294 23.1738 28.3753 23.2597 28.473 23.3236C28.5707 23.3876 28.6819 23.4279 28.7979 23.4413L31.0216 23.6888C31.1147 23.7863 31.2085 23.88 31.3029 23.97L31.5625 26.1994C31.576 26.3155 31.6165 26.4268 31.6806 26.5244C31.7447 26.6221 31.8308 26.7034 31.9319 26.7619C32.7036 27.2088 33.5311 27.5515 34.3929 27.781C34.5064 27.8112 34.6255 27.8143 34.7404 27.79C34.8554 27.7657 34.9631 27.7148 35.0547 27.6413L36.7975 26.25C36.9325 26.2538 37.0675 26.2538 37.2025 26.25L38.95 27.6488C39.0418 27.7221 39.1495 27.7729 39.2645 27.797C39.3794 27.8211 39.4984 27.8179 39.6119 27.7875C40.4739 27.5582 41.3014 27.2152 42.0729 26.7675C42.1738 26.7089 42.2597 26.6276 42.3236 26.5299C42.3876 26.4322 42.4279 26.321 42.4413 26.205L42.6888 23.9813C42.7863 23.8888 42.88 23.795 42.97 23.7L45.1994 23.4375C45.3155 23.424 45.4268 23.3836 45.5244 23.3195C45.6221 23.2554 45.7034 23.1693 45.7619 23.0682C46.2088 22.2965 46.5515 21.4689 46.781 20.6072C46.8112 20.4937 46.8143 20.3746 46.79 20.2597C46.7657 20.1447 46.7148 20.037 46.6413 19.9454L45.25 18.2025ZM43.7407 17.5932C43.7566 17.8642 43.7566 18.1359 43.7407 18.4069C43.7295 18.5925 43.7876 18.7756 43.9038 18.9207L45.2341 20.5829C45.0815 21.068 44.886 21.5386 44.65 21.9891L42.5313 22.2291C42.3468 22.2496 42.1764 22.3378 42.0532 22.4766C41.8727 22.6796 41.6805 22.8718 41.4775 23.0522C41.3387 23.1755 41.2505 23.3458 41.23 23.5304L40.9947 25.6472C40.5443 25.8833 40.0736 26.0788 39.5885 26.2313L37.9254 24.901C37.7923 24.7946 37.627 24.7368 37.4566 24.7369H37.4116C37.1406 24.7529 36.8689 24.7529 36.5979 24.7369C36.4123 24.7257 36.2292 24.7839 36.0841 24.9L34.4172 26.2313C33.9321 26.0786 33.4615 25.8832 33.011 25.6472L32.771 23.5313C32.7505 23.3468 32.6623 23.1764 32.5235 23.0532C32.3205 22.8727 32.1283 22.6805 31.9479 22.4775C31.8246 22.3387 31.6542 22.2505 31.4697 22.23L29.3529 21.9938C29.1168 21.5433 28.9213 21.0727 28.7688 20.5875L30.0991 18.9244C30.2153 18.7793 30.2734 18.5962 30.2622 18.4107C30.2463 18.1397 30.2463 17.8679 30.2622 17.5969C30.2734 17.4114 30.2153 17.2283 30.0991 17.0832L28.7688 15.4172C28.9214 14.9321 29.1169 14.4615 29.3529 14.011L31.4688 13.771C31.6533 13.7505 31.8237 13.6623 31.9469 13.5235C32.1274 13.3205 32.3196 13.1283 32.5225 12.9479C32.6619 12.8245 32.7505 12.6538 32.771 12.4688L33.0063 10.3529C33.4568 10.1168 33.9274 9.92132 34.4125 9.76879L36.0757 11.0991C36.2208 11.2153 36.4039 11.2734 36.5894 11.2622C36.8604 11.2463 37.1322 11.2463 37.4032 11.2622C37.5887 11.2734 37.7718 11.2153 37.9169 11.0991L39.5829 9.76879C40.068 9.92144 40.5386 10.1169 40.9891 10.3529L41.2291 12.4688C41.2496 12.6533 41.3378 12.8237 41.4766 12.9469C41.6796 13.1274 41.8718 13.3196 42.0522 13.5225C42.1755 13.6614 42.3458 13.7496 42.5304 13.77L44.6472 14.0054C44.8833 14.4558 45.0788 14.9264 45.2313 15.4116L43.901 17.0747C43.7837 17.2211 43.7255 17.406 43.7379 17.5932H43.7407Z" fill="white" stroke="white" stroke-width="2" mask="url(#path-1-inside-1_301_1626)"/>
<path d="M23.2326 39.5042C23.1947 39.1681 23.0384 38.9076 22.7638 38.723C22.4892 38.536 22.1436 38.4424 21.7269 38.4424C21.4286 38.4424 21.1706 38.4898 20.9527 38.5845C20.7349 38.6768 20.5657 38.8047 20.4449 38.968C20.3266 39.129 20.2674 39.3125 20.2674 39.5184C20.2674 39.6913 20.3076 39.8404 20.3881 39.9659C20.471 40.0914 20.5787 40.1967 20.7113 40.2819C20.8462 40.3648 20.9906 40.4346 21.1445 40.4915C21.2984 40.5459 21.4464 40.5909 21.5884 40.6264L22.2986 40.8111C22.5306 40.8679 22.7686 40.9448 23.0124 41.0419C23.2563 41.1389 23.4823 41.2668 23.6907 41.4254C23.899 41.584 24.0671 41.7805 24.1949 42.0149C24.3251 42.2493 24.3902 42.5298 24.3902 42.8565C24.3902 43.2684 24.2837 43.6342 24.0706 43.9538C23.8599 44.2734 23.5534 44.5255 23.1509 44.7102C22.7508 44.8949 22.2667 44.9872 21.6985 44.9872C21.154 44.9872 20.6829 44.9008 20.2851 44.728C19.8874 44.5551 19.5761 44.3101 19.3512 43.9929C19.1263 43.6733 19.002 43.2945 18.9783 42.8565H20.0792C20.1005 43.1193 20.1857 43.3383 20.3349 43.5135C20.4864 43.6863 20.6793 43.8153 20.9137 43.9005C21.1504 43.9834 21.4097 44.0248 21.6914 44.0248C22.0015 44.0248 22.2773 43.9763 22.5188 43.8792C22.7626 43.7798 22.9544 43.6425 23.0941 43.4673C23.2338 43.2898 23.3036 43.0826 23.3036 42.8459C23.3036 42.6304 23.242 42.454 23.1189 42.3167C22.9982 42.1794 22.8337 42.0658 22.6253 41.9758C22.4194 41.8859 22.1862 41.8066 21.9258 41.7379L21.0664 41.5035C20.484 41.3449 20.0224 41.1117 19.6814 40.804C19.3429 40.4962 19.1736 40.089 19.1736 39.5824C19.1736 39.1633 19.2873 38.7976 19.5145 38.4851C19.7418 38.1726 20.0496 37.9299 20.4378 37.7571C20.8261 37.5819 21.2641 37.4943 21.7518 37.4943C22.2442 37.4943 22.6786 37.5807 23.055 37.7535C23.4338 37.9264 23.7321 38.1643 23.9499 38.4673C24.1677 38.768 24.2813 39.1136 24.2908 39.5042H23.2326ZM27.7271 44.9765C27.1897 44.9765 26.7269 44.8617 26.3386 44.6321C25.9527 44.4001 25.6545 44.0746 25.4438 43.6555C25.2354 43.2341 25.1313 42.7405 25.1313 42.1747C25.1313 41.616 25.2354 41.1236 25.4438 40.6974C25.6545 40.2713 25.948 39.9387 26.3244 39.6996C26.7032 39.4604 27.1459 39.3409 27.6526 39.3409C27.9603 39.3409 28.2586 39.3918 28.5474 39.4936C28.8363 39.5954 29.0955 39.7552 29.3251 39.973C29.5548 40.1908 29.7359 40.4737 29.8685 40.8217C30.001 41.1674 30.0673 41.5876 30.0673 42.0824V42.4588H25.7314V41.6633H29.0268C29.0268 41.384 28.97 41.1366 28.8564 40.9211C28.7428 40.7033 28.583 40.5317 28.377 40.4062C28.1734 40.2808 27.9343 40.218 27.6597 40.218C27.3614 40.218 27.1009 40.2914 26.8784 40.4382C26.6582 40.5826 26.4878 40.772 26.367 41.0064C26.2487 41.2384 26.1895 41.4905 26.1895 41.7628V42.3842C26.1895 42.7488 26.2534 43.0589 26.3813 43.3146C26.5115 43.5703 26.6926 43.7656 26.9246 43.9005C27.1566 44.0331 27.4277 44.0994 27.7378 44.0994C27.939 44.0994 28.1225 44.071 28.2882 44.0142C28.4539 43.955 28.5972 43.8674 28.7179 43.7514C28.8386 43.6354 28.931 43.4922 28.9949 43.3217L29.9999 43.5028C29.9194 43.7987 29.775 44.058 29.5666 44.2805C29.3607 44.5007 29.1014 44.6723 28.7889 44.7954C28.4788 44.9162 28.1249 44.9765 27.7271 44.9765ZM33.5516 39.4119V40.2642H30.5722V39.4119H33.5516ZM31.3712 38.1051H32.433V43.2649C32.433 43.4709 32.4638 43.6259 32.5253 43.7301C32.5869 43.8319 32.6662 43.9017 32.7632 43.9396C32.8627 43.9751 32.9704 43.9929 33.0864 43.9929C33.1716 43.9929 33.2462 43.987 33.3101 43.9751C33.374 43.9633 33.4237 43.9538 33.4593 43.9467L33.651 44.8238C33.5895 44.8475 33.5019 44.8712 33.3882 44.8949C33.2746 44.9209 33.1326 44.9351 32.9621 44.9375C32.6827 44.9422 32.4223 44.8925 32.1808 44.7883C31.9394 44.6842 31.7441 44.5232 31.5949 44.3054C31.4458 44.0876 31.3712 43.8141 31.3712 43.4851V38.1051ZM37.0323 39.4119V40.2642H34.0529V39.4119H37.0323ZM34.8519 38.1051H35.9137V43.2649C35.9137 43.4709 35.9445 43.6259 36.006 43.7301C36.0676 43.8319 36.1469 43.9017 36.2439 43.9396C36.3434 43.9751 36.4511 43.9929 36.5671 43.9929C36.6523 43.9929 36.7269 43.987 36.7908 43.9751C36.8547 43.9633 36.9044 43.9538 36.94 43.9467L37.1317 44.8238C37.0702 44.8475 36.9826 44.8712 36.8689 44.8949C36.7553 44.9209 36.6133 44.9351 36.4428 44.9375C36.1634 44.9422 35.903 44.8925 35.6615 44.7883C35.4201 44.6842 35.2248 44.5232 35.0756 44.3054C34.9265 44.0876 34.8519 43.8141 34.8519 43.4851V38.1051ZM37.9668 44.8665V39.4119H39.0286V44.8665H37.9668ZM38.503 38.5703C38.3184 38.5703 38.1598 38.5087 38.0272 38.3856C37.897 38.2602 37.8319 38.111 37.8319 37.9382C37.8319 37.763 37.897 37.6139 38.0272 37.4907C38.1598 37.3653 38.3184 37.3025 38.503 37.3025C38.6877 37.3025 38.8451 37.3653 38.9753 37.4907C39.1079 37.6139 39.1742 37.763 39.1742 37.9382C39.1742 38.111 39.1079 38.2602 38.9753 38.3856C38.8451 38.5087 38.6877 38.5703 38.503 38.5703ZM41.2788 41.6278V44.8665H40.2171V39.4119H41.2362V40.2997H41.3037C41.4292 40.0109 41.6257 39.7789 41.8932 39.6037C42.1631 39.4285 42.5028 39.3409 42.9124 39.3409C43.2841 39.3409 43.6096 39.419 43.8889 39.5753C44.1683 39.7291 44.3849 39.9588 44.5388 40.2642C44.6927 40.5696 44.7696 40.9472 44.7696 41.397V44.8665H43.7078V41.5248C43.7078 41.1295 43.6048 40.8205 43.3989 40.598C43.1929 40.3731 42.91 40.2606 42.5502 40.2606C42.3039 40.2606 42.085 40.3139 41.8932 40.4204C41.7038 40.527 41.5535 40.6832 41.4422 40.8892C41.3333 41.0928 41.2788 41.339 41.2788 41.6278ZM48.2406 47.0255C47.8073 47.0255 47.4344 46.9687 47.1219 46.8551C46.8118 46.7415 46.5585 46.5911 46.362 46.4041C46.1655 46.2171 46.0187 46.0123 45.9217 45.7898L46.8343 45.4133C46.8982 45.5175 46.9835 45.6276 47.09 45.7436C47.1989 45.862 47.3457 45.9626 47.5303 46.0454C47.7174 46.1283 47.9576 46.1697 48.2512 46.1697C48.6537 46.1697 48.9863 46.0715 49.2491 45.875C49.5119 45.6808 49.6433 45.3707 49.6433 44.9446V43.8721H49.5758C49.5119 43.9881 49.4195 44.1172 49.2988 44.2592C49.1804 44.4013 49.0171 44.5244 48.8087 44.6285C48.6004 44.7327 48.3293 44.7848 47.9955 44.7848C47.5647 44.7848 47.1764 44.6842 46.8308 44.4829C46.4875 44.2793 46.2152 43.9799 46.014 43.5845C45.8151 43.1868 45.7157 42.6979 45.7157 42.1179C45.7157 41.5379 45.8139 41.0407 46.0104 40.6264C46.2093 40.2121 46.4816 39.8949 46.8272 39.6747C47.1728 39.4522 47.5647 39.3409 48.0026 39.3409C48.3412 39.3409 48.6146 39.3977 48.8229 39.5113C49.0313 39.6226 49.1934 39.7528 49.3094 39.902C49.4278 40.0511 49.519 40.1825 49.5829 40.2961H49.661V39.4119H50.7015V44.9872C50.7015 45.4559 50.5926 45.8407 50.3748 46.1413C50.157 46.442 49.8622 46.6645 49.4906 46.8089C49.1212 46.9533 48.7046 47.0255 48.2406 47.0255ZM48.2299 43.9041C48.5353 43.9041 48.7933 43.8331 49.004 43.691C49.2171 43.5466 49.3781 43.3407 49.487 43.0731C49.5983 42.8032 49.6539 42.4801 49.6539 42.1037C49.6539 41.7367 49.5995 41.4136 49.4906 41.1342C49.3817 40.8549 49.2219 40.6371 49.0112 40.4808C48.8004 40.3222 48.54 40.2429 48.2299 40.2429C47.9103 40.2429 47.644 40.3257 47.4309 40.4915C47.2178 40.6548 47.0568 40.8773 46.9479 41.1591C46.8414 41.4408 46.7881 41.7557 46.7881 42.1037C46.7881 42.4612 46.8426 42.7748 46.9515 43.0447C47.0604 43.3146 47.2214 43.5253 47.4344 43.6768C47.6499 43.8283 47.915 43.9041 48.2299 43.9041ZM55.9729 40.7436L55.0105 40.914C54.9703 40.7909 54.9063 40.6737 54.8187 40.5625C54.7335 40.4512 54.6175 40.3601 54.4707 40.289C54.3239 40.218 54.1405 40.1825 53.9203 40.1825C53.6196 40.1825 53.3687 40.25 53.1675 40.3849C52.9662 40.5175 52.8656 40.6891 52.8656 40.8998C52.8656 41.0821 52.9331 41.2289 53.068 41.3402C53.203 41.4514 53.4208 41.5426 53.7214 41.6136L54.5879 41.8125C55.0898 41.9285 55.4639 42.1072 55.7101 42.3487C55.9563 42.5902 56.0794 42.9039 56.0794 43.2898C56.0794 43.6165 55.9847 43.9076 55.7953 44.1633C55.6083 44.4166 55.3467 44.6155 55.0105 44.7599C54.6767 44.9043 54.2896 44.9765 53.8493 44.9765C53.2385 44.9765 52.7401 44.8463 52.3542 44.5859C51.9684 44.3231 51.7316 43.9503 51.644 43.4673L52.6703 43.3111C52.7342 43.5786 52.8656 43.781 53.0645 43.9183C53.2633 44.0532 53.5226 44.1207 53.8422 44.1207C54.1902 44.1207 54.4684 44.0485 54.6767 43.9041C54.885 43.7573 54.9892 43.5786 54.9892 43.3679C54.9892 43.1974 54.9253 43.0542 54.7974 42.9382C54.672 42.8222 54.479 42.7346 54.2186 42.6754L53.2953 42.473C52.7863 42.357 52.4099 42.1723 52.166 41.919C51.9246 41.6657 51.8038 41.3449 51.8038 40.9567C51.8038 40.6347 51.8938 40.353 52.0737 40.1115C52.2536 39.87 52.5022 39.6818 52.8194 39.5469C53.1367 39.4095 53.5001 39.3409 53.9096 39.3409C54.4991 39.3409 54.9631 39.4687 55.3017 39.7244C55.6402 39.9777 55.864 40.3174 55.9729 40.7436Z" fill="white"/>
</svg>
