<svg width="74" height="49" viewBox="0 0 74 49" fill="none" xmlns="http://www.w3.org/2000/svg">
<path d="M32.25 16.5C32.25 16.3011 32.329 16.1103 32.4697 15.9697C32.6103 15.829 32.8011 15.75 33 15.75H40.5C40.6989 15.75 40.8897 15.829 41.0303 15.9697C41.171 16.1103 41.25 16.3011 41.25 16.5C41.25 16.6989 41.171 16.8897 41.0303 17.0303C40.8897 17.171 40.6989 17.25 40.5 17.25H33C32.8011 17.25 32.6103 17.171 32.4697 17.0303C32.329 16.8897 32.25 16.6989 32.25 16.5ZM33 20.25H40.5C40.6989 20.25 40.8897 20.171 41.0303 20.0303C41.171 19.8897 41.25 19.6989 41.25 19.5C41.25 19.3011 41.171 19.1103 41.0303 18.9697C40.8897 18.829 40.6989 18.75 40.5 18.75H33C32.8011 18.75 32.6103 18.829 32.4697 18.9697C32.329 19.1103 32.25 19.3011 32.25 19.5C32.25 19.6989 32.329 19.8897 32.4697 20.0303C32.6103 20.171 32.8011 20.25 33 20.25ZM45.75 12V23.25C45.75 23.8467 45.5129 24.419 45.091 24.841C44.669 25.2629 44.0967 25.5 43.5 25.5H27C26.405 25.5 25.8343 25.2644 25.4126 24.8446C24.991 24.4249 24.7527 23.8553 24.75 23.2603V14.25C24.75 14.0511 24.829 13.8603 24.9697 13.7197C25.1103 13.579 25.3011 13.5 25.5 13.5C25.6989 13.5 25.8897 13.579 26.0303 13.7197C26.171 13.8603 26.25 14.0511 26.25 14.25V23.25C26.25 23.4489 26.329 23.6397 26.4697 23.7803C26.6103 23.921 26.8011 24 27 24C27.1989 24 27.3897 23.921 27.5303 23.7803C27.671 23.6397 27.75 23.4489 27.75 23.25V12C27.75 11.6022 27.908 11.2206 28.1893 10.9393C28.4706 10.658 28.8522 10.5 29.25 10.5H44.25C44.6478 10.5 45.0294 10.658 45.3107 10.9393C45.592 11.2206 45.75 11.6022 45.75 12ZM44.25 12H29.25V23.25C29.2504 23.5055 29.2069 23.7592 29.1216 24H43.5C43.6989 24 43.8897 23.921 44.0303 23.7803C44.171 23.6397 44.25 23.4489 44.25 23.25V12Z" fill="white"/>
<path d="M16.0409 39.5042C16.0031 39.1681 15.8468 38.9076 15.5722 38.723C15.2976 38.536 14.9519 38.4424 14.5353 38.4424C14.237 38.4424 13.9789 38.4898 13.7611 38.5845C13.5433 38.6768 13.374 38.8047 13.2533 38.968C13.1349 39.129 13.0757 39.3125 13.0757 39.5184C13.0757 39.6913 13.116 39.8404 13.1965 39.9659C13.2793 40.0914 13.3871 40.1967 13.5196 40.2819C13.6546 40.3648 13.799 40.4346 13.9529 40.4915C14.1068 40.5459 14.2547 40.5909 14.3968 40.6264L15.107 40.8111C15.339 40.8679 15.5769 40.9448 15.8208 41.0419C16.0646 41.1389 16.2907 41.2668 16.499 41.4254C16.7074 41.584 16.8755 41.7805 17.0033 42.0149C17.1335 42.2493 17.1986 42.5298 17.1986 42.8565C17.1986 43.2684 17.0921 43.6342 16.879 43.9538C16.6683 44.2734 16.3617 44.5255 15.9593 44.7102C15.5592 44.8949 15.075 44.9872 14.5068 44.9872C13.9623 44.9872 13.4912 44.9008 13.0935 44.728C12.6958 44.5551 12.3845 44.3101 12.1595 43.9929C11.9346 43.6733 11.8104 43.2945 11.7867 42.8565H12.8875C12.9088 43.1193 12.9941 43.3383 13.1432 43.5135C13.2947 43.6863 13.4877 43.8153 13.722 43.9005C13.9588 43.9834 14.218 44.0248 14.4997 44.0248C14.8099 44.0248 15.0857 43.9763 15.3272 43.8792C15.571 43.7798 15.7628 43.6425 15.9024 43.4673C16.0421 43.2898 16.112 43.0826 16.112 42.8459C16.112 42.6304 16.0504 42.454 15.9273 42.3167C15.8066 42.1794 15.642 42.0658 15.4337 41.9758C15.2277 41.8859 14.9945 41.8066 14.7341 41.7379L13.8747 41.5035C13.2924 41.3449 12.8307 41.1117 12.4898 40.804C12.1513 40.4962 11.982 40.089 11.982 39.5824C11.982 39.1633 12.0956 38.7976 12.3229 38.4851C12.5502 38.1726 12.8579 37.9299 13.2462 37.7571C13.6345 37.5819 14.0724 37.4943 14.5601 37.4943C15.0525 37.4943 15.487 37.5807 15.8634 37.7535C16.2422 37.9264 16.5405 38.1643 16.7583 38.4673C16.9761 38.768 17.0897 39.1136 17.0992 39.5042H16.0409ZM18.1846 46.9119V39.4119H19.2216V40.2961H19.3103C19.3719 40.1825 19.4607 40.0511 19.5767 39.902C19.6927 39.7528 19.8537 39.6226 20.0596 39.5113C20.2656 39.3977 20.5379 39.3409 20.8764 39.3409C21.3167 39.3409 21.7097 39.4522 22.0554 39.6747C22.401 39.8972 22.6721 40.218 22.8686 40.6371C23.0675 41.0561 23.1669 41.5603 23.1669 42.1498C23.1669 42.7393 23.0686 43.2448 22.8721 43.6662C22.6756 44.0852 22.4058 44.4084 22.0625 44.6356C21.7192 44.8605 21.3274 44.973 20.8871 44.973C20.5556 44.973 20.2845 44.9174 20.0738 44.8061C19.8655 44.6948 19.7022 44.5646 19.5838 44.4155C19.4654 44.2663 19.3743 44.1337 19.3103 44.0177H19.2464V46.9119H18.1846ZM19.2251 42.1392C19.2251 42.5227 19.2808 42.8589 19.392 43.1477C19.5033 43.4365 19.6643 43.6626 19.875 43.826C20.0857 43.987 20.3437 44.0674 20.6491 44.0674C20.9664 44.0674 21.2315 43.9834 21.4446 43.8153C21.6576 43.6449 21.8186 43.414 21.9275 43.1228C22.0388 42.8317 22.0944 42.5038 22.0944 42.1392C22.0944 41.7793 22.04 41.4562 21.9311 41.1697C21.8246 40.8833 21.6636 40.6572 21.4481 40.4915C21.2351 40.3257 20.9687 40.2429 20.6491 40.2429C20.3414 40.2429 20.0809 40.3222 19.8679 40.4808C19.6572 40.6394 19.4974 40.8608 19.3885 41.1449C19.2796 41.429 19.2251 41.7604 19.2251 42.1392ZM26.4141 44.9765C25.9027 44.9765 25.4565 44.8594 25.0753 44.625C24.6942 44.3906 24.3982 44.0627 24.1875 43.6413C23.9768 43.2199 23.8715 42.7275 23.8715 42.164C23.8715 41.5982 23.9768 41.1034 24.1875 40.6797C24.3982 40.2559 24.6942 39.9268 25.0753 39.6924C25.4565 39.4581 25.9027 39.3409 26.4141 39.3409C26.9255 39.3409 27.3717 39.4581 27.7529 39.6924C28.134 39.9268 28.43 40.2559 28.6407 40.6797C28.8514 41.1034 28.9567 41.5982 28.9567 42.164C28.9567 42.7275 28.8514 43.2199 28.6407 43.6413C28.43 44.0627 28.134 44.3906 27.7529 44.625C27.3717 44.8594 26.9255 44.9765 26.4141 44.9765ZM26.4176 44.0852C26.7491 44.0852 27.0237 43.9976 27.2415 43.8224C27.4593 43.6472 27.6203 43.414 27.7245 43.1228C27.831 42.8317 27.8843 42.5109 27.8843 42.1605C27.8843 41.8125 27.831 41.4929 27.7245 41.2017C27.6203 40.9081 27.4593 40.6726 27.2415 40.495C27.0237 40.3174 26.7491 40.2287 26.4176 40.2287C26.0838 40.2287 25.8069 40.3174 25.5867 40.495C25.3689 40.6726 25.2067 40.9081 25.1002 41.2017C24.996 41.4929 24.9439 41.8125 24.9439 42.1605C24.9439 42.5109 24.996 42.8317 25.1002 43.1228C25.2067 43.414 25.3689 43.6472 25.5867 43.8224C25.8069 43.9976 26.0838 44.0852 26.4176 44.0852ZM29.9019 44.8665V39.4119H30.9282V40.2784H30.985C31.0844 39.9848 31.2596 39.754 31.5106 39.5859C31.7639 39.4155 32.0503 39.3302 32.3699 39.3302C32.4362 39.3302 32.5144 39.3326 32.6043 39.3373C32.6966 39.3421 32.7689 39.348 32.8209 39.3551V40.3707C32.7783 40.3589 32.7026 40.3459 32.5937 40.3317C32.4848 40.3151 32.3759 40.3068 32.267 40.3068C32.016 40.3068 31.7923 40.3601 31.5958 40.4666C31.4017 40.5708 31.2478 40.7164 31.1341 40.9034C31.0205 41.088 30.9637 41.2987 30.9637 41.5355V44.8665H29.9019ZM36.3682 39.4119V40.2642H33.3888V39.4119H36.3682ZM34.1878 38.1051H35.2496V43.2649C35.2496 43.4709 35.2804 43.6259 35.3419 43.7301C35.4035 43.8319 35.4828 43.9017 35.5799 43.9396C35.6793 43.9751 35.787 43.9929 35.903 43.9929C35.9883 43.9929 36.0628 43.987 36.1267 43.9751C36.1907 43.9633 36.2404 43.9538 36.2759 43.9467L36.4677 44.8238C36.4061 44.8475 36.3185 44.8712 36.2049 44.8949C36.0912 44.9209 35.9492 44.9351 35.7787 44.9375C35.4994 44.9422 35.239 44.8925 34.9975 44.7883C34.756 44.6842 34.5607 44.5232 34.4115 44.3054C34.2624 44.0876 34.1878 43.8141 34.1878 43.4851V38.1051ZM40.771 41.6278V44.8665H39.7092V39.4119H40.7284V40.2997H40.7959C40.9214 40.0109 41.1179 39.7789 41.3854 39.6037C41.6553 39.4285 41.995 39.3409 42.4046 39.3409C42.7762 39.3409 43.1018 39.419 43.3811 39.5753C43.6605 39.7291 43.8771 39.9588 44.031 40.2642C44.1849 40.5696 44.2618 40.9472 44.2618 41.397V44.8665H43.2V41.5248C43.2 41.1295 43.097 40.8205 42.8911 40.598C42.6851 40.3731 42.4022 40.2606 42.0423 40.2606C41.7961 40.2606 41.5771 40.3139 41.3854 40.4204C41.196 40.527 41.0457 40.6832 40.9344 40.8892C40.8255 41.0928 40.771 41.339 40.771 41.6278ZM47.7967 44.9765C47.2593 44.9765 46.7964 44.8617 46.4082 44.6321C46.0223 44.4001 45.724 44.0746 45.5133 43.6555C45.3049 43.2341 45.2008 42.7405 45.2008 42.1747C45.2008 41.616 45.3049 41.1236 45.5133 40.6974C45.724 40.2713 46.0175 39.9387 46.394 39.6996C46.7728 39.4604 47.2155 39.3409 47.7221 39.3409C48.0299 39.3409 48.3282 39.3918 48.617 39.4936C48.9058 39.5954 49.165 39.7552 49.3947 39.973C49.6243 40.1908 49.8054 40.4737 49.938 40.8217C50.0706 41.1674 50.1369 41.5876 50.1369 42.0824V42.4588H45.8009V41.6633H49.0964C49.0964 41.384 49.0396 41.1366 48.9259 40.9211C48.8123 40.7033 48.6525 40.5317 48.4465 40.4062C48.2429 40.2808 48.0038 40.218 47.7292 40.218C47.4309 40.218 47.1705 40.2914 46.9479 40.4382C46.7278 40.5826 46.5573 40.772 46.4366 41.0064C46.3182 41.2384 46.259 41.4905 46.259 41.7628V42.3842C46.259 42.7488 46.3229 43.0589 46.4508 43.3146C46.581 43.5703 46.7621 43.7656 46.9941 43.9005C47.2261 44.0331 47.4972 44.0994 47.8073 44.0994C48.0085 44.0994 48.192 44.071 48.3577 44.0142C48.5235 43.955 48.6667 43.8674 48.7874 43.7514C48.9082 43.6354 49.0005 43.4922 49.0644 43.3217L50.0694 43.5028C49.9889 43.7987 49.8445 44.058 49.6362 44.2805C49.4302 44.5007 49.171 44.6723 48.8585 44.7954C48.5483 44.9162 48.1944 44.9765 47.7967 44.9765ZM52.2477 44.8665L50.6426 39.4119H51.7399L52.8088 43.4176H52.8621L53.9345 39.4119H55.0318L56.0971 43.3998H56.1504L57.2122 39.4119H58.3095L56.7079 44.8665H55.6248L54.5169 40.9282H54.4352L53.3273 44.8665H52.2477ZM63.1645 40.7436L62.2021 40.914C62.1619 40.7909 62.098 40.6737 62.0104 40.5625C61.9251 40.4512 61.8091 40.3601 61.6624 40.289C61.5156 40.218 61.3321 40.1825 61.1119 40.1825C60.8113 40.1825 60.5603 40.25 60.3591 40.3849C60.1579 40.5175 60.0572 40.6891 60.0572 40.8998C60.0572 41.0821 60.1247 41.2289 60.2597 41.3402C60.3946 41.4514 60.6124 41.5426 60.9131 41.6136L61.7796 41.8125C62.2814 41.9285 62.6555 42.1072 62.9017 42.3487C63.1479 42.5902 63.271 42.9039 63.271 43.2898C63.271 43.6165 63.1763 43.9076 62.9869 44.1633C62.7999 44.4166 62.5383 44.6155 62.2021 44.7599C61.8683 44.9043 61.4813 44.9765 61.0409 44.9765C60.4301 44.9765 59.9318 44.8463 59.5459 44.5859C59.16 44.3231 58.9233 43.9503 58.8357 43.4673L59.8619 43.3111C59.9259 43.5786 60.0572 43.781 60.2561 43.9183C60.455 44.0532 60.7142 44.1207 61.0338 44.1207C61.3818 44.1207 61.66 44.0485 61.8683 43.9041C62.0767 43.7573 62.1808 43.5786 62.1808 43.3679C62.1808 43.1974 62.1169 43.0542 61.9891 42.9382C61.8636 42.8222 61.6706 42.7346 61.4102 42.6754L60.4869 42.473C59.9779 42.357 59.6015 42.1723 59.3577 41.919C59.1162 41.6657 58.9955 41.3449 58.9955 40.9567C58.9955 40.6347 59.0854 40.353 59.2653 40.1115C59.4453 39.87 59.6938 39.6818 60.0111 39.5469C60.3283 39.4095 60.6917 39.3409 61.1013 39.3409C61.6908 39.3409 62.1548 39.4687 62.4933 39.7244C62.8319 39.9777 63.0556 40.3174 63.1645 40.7436Z" fill="white"/>
</svg>
